<?xml version="1.0" standalone="no"?>
<!DOCTYPE svg PUBLIC "-//W3C//DTD SVG 20010904//EN"
 "http://www.w3.org/TR/2001/REC-SVG-20010904/DTD/svg10.dtd">
<svg version="1.0" xmlns="http://www.w3.org/2000/svg"
 width="3200.000000pt" height="3200.000000pt" viewBox="0 0 3200.000000 3200.000000"
 preserveAspectRatio="xMidYMid meet">
<metadata>
Created by potrace 1.14, written by Peter Selinger 2001-2017
</metadata>
<g transform="translate(0.000000,3200.000000) scale(0.100000,-0.100000)"
fill="#000000" stroke="none">
<path d="M15538 31995 c-2 -2 -88 -6 -193 -10 -104 -3 -210 -8 -235 -10 -25
-2 -96 -6 -157 -10 -62 -3 -132 -8 -155 -10 -24 -2 -79 -6 -123 -10 -44 -3
-98 -8 -120 -10 -50 -5 -132 -13 -210 -20 -33 -3 -76 -7 -95 -10 -19 -2 -57
-7 -85 -10 -27 -3 -66 -8 -85 -10 -19 -3 -58 -7 -86 -10 -28 -3 -62 -8 -74
-10 -12 -2 -48 -7 -79 -11 -31 -3 -63 -8 -72 -9 -9 -2 -40 -6 -70 -10 -55 -6
-87 -11 -125 -19 -12 -2 -45 -7 -74 -11 -29 -4 -62 -9 -74 -11 -11 -2 -38 -6
-60 -10 -22 -3 -43 -7 -46 -9 -3 -2 -26 -6 -50 -9 -25 -3 -81 -12 -125 -20
-44 -9 -91 -17 -105 -20 -109 -20 -454 -92 -580 -121 -85 -20 -167 -38 -181
-41 -14 -2 -120 -29 -235 -60 -115 -30 -220 -57 -234 -60 -14 -3 -110 -30
-215 -60 -104 -30 -197 -57 -205 -59 -8 -2 -34 -10 -58 -19 -23 -8 -46 -16
-50 -17 -4 -1 -11 -3 -17 -4 -31 -8 -583 -190 -595 -196 -8 -4 -60 -23 -115
-42 -196 -68 -548 -206 -820 -322 -118 -50 -117 -50 -335 -148 -80 -36 -163
-74 -185 -84 -62 -28 -733 -366 -800 -403 -33 -18 -116 -64 -185 -103 -69 -38
-203 -115 -298 -170 -94 -56 -180 -106 -190 -112 -14 -8 -281 -175 -396 -248
-11 -7 -62 -40 -114 -74 -51 -35 -98 -63 -102 -63 -5 0 -10 -3 -12 -7 -1 -5
-52 -42 -113 -82 -60 -41 -159 -110 -220 -153 -60 -43 -118 -83 -129 -90 -69
-47 -506 -378 -532 -403 -6 -5 -26 -21 -44 -35 -92 -69 -346 -278 -550 -453
-57 -49 -175 -154 -200 -177 -15 -14 -71 -65 -126 -115 -179 -163 -266 -247
-524 -505 -240 -240 -302 -305 -459 -475 -35 -39 -80 -88 -100 -110 -21 -22
-75 -83 -120 -135 -46 -52 -95 -109 -110 -125 -86 -98 -207 -243 -342 -411
-154 -190 -176 -219 -241 -304 -19 -25 -64 -84 -100 -131 -387 -508 -900
-1296 -1196 -1839 -16 -30 -43 -80 -60 -110 -106 -192 -362 -696 -440 -865
-23 -49 -90 -197 -139 -305 -14 -30 -30 -68 -38 -85 -7 -16 -26 -61 -43 -100
-17 -38 -42 -99 -57 -135 -15 -36 -33 -78 -40 -95 -23 -53 -162 -409 -170
-435 -4 -14 -13 -38 -21 -55 -63 -140 -306 -881 -406 -1240 -41 -148 -154
-584 -163 -630 -8 -38 -36 -160 -50 -215 -12 -48 -23 -103 -40 -189 -3 -14
-14 -70 -26 -125 -28 -138 -28 -134 -39 -196 -6 -30 -12 -66 -15 -80 -3 -14
-9 -50 -15 -80 -5 -30 -12 -66 -14 -80 -3 -14 -8 -41 -10 -60 -3 -19 -7 -46
-10 -60 -2 -14 -8 -47 -12 -75 -4 -27 -9 -57 -10 -65 -2 -8 -6 -35 -9 -60 -3
-25 -8 -52 -10 -60 -2 -8 -6 -37 -10 -65 -3 -27 -10 -77 -15 -110 -11 -71 -18
-124 -24 -185 -9 -75 -24 -202 -31 -260 -2 -19 -7 -62 -10 -95 -3 -33 -7 -78
-10 -100 -2 -22 -7 -70 -10 -107 -10 -133 -16 -204 -20 -243 -3 -22 -7 -92
-11 -155 -3 -63 -8 -135 -9 -160 -27 -383 -27 -1376 0 -1800 2 -36 7 -110 10
-165 4 -55 8 -113 10 -130 2 -16 7 -73 10 -125 3 -52 8 -111 10 -130 9 -91 15
-150 20 -205 3 -33 8 -77 10 -97 9 -67 14 -112 20 -168 3 -30 8 -66 10 -80 2
-14 7 -50 10 -80 3 -30 8 -66 10 -80 2 -14 7 -45 10 -70 4 -25 8 -57 11 -71 2
-15 6 -47 9 -70 5 -41 90 -550 99 -594 12 -54 69 -343 72 -365 3 -14 7 -31 9
-38 5 -12 40 -172 51 -232 3 -14 9 -38 14 -55 5 -16 28 -106 50 -200 110 -458
267 -981 441 -1470 251 -708 468 -1214 804 -1880 126 -249 375 -710 445 -825
5 -8 69 -114 141 -235 73 -121 157 -258 188 -305 151 -234 310 -470 407 -608
60 -85 116 -164 124 -176 31 -45 273 -369 281 -376 3 -3 36 -45 74 -95 85
-111 177 -228 185 -235 3 -3 46 -54 95 -115 83 -101 331 -393 345 -405 3 -3
64 -70 135 -150 294 -327 692 -727 1069 -1075 20 -19 140 -128 187 -169 92
-83 199 -174 375 -323 27 -23 63 -52 79 -64 17 -13 32 -26 35 -29 3 -4 75 -62
160 -129 85 -68 164 -131 175 -140 21 -16 287 -215 400 -298 247 -182 756
-523 945 -634 30 -18 57 -35 60 -39 7 -8 460 -275 590 -347 19 -11 76 -41 125
-68 50 -27 126 -68 170 -93 85 -47 624 -316 741 -369 175 -81 227 -104 339
-153 164 -72 209 -91 340 -145 50 -20 113 -46 140 -56 28 -11 59 -24 70 -29
11 -4 47 -18 80 -30 33 -12 74 -28 90 -35 17 -7 64 -25 105 -40 41 -15 93 -34
115 -42 22 -8 85 -31 140 -49 55 -19 109 -39 120 -44 90 -41 958 -303 1175
-355 8 -2 69 -17 135 -33 291 -74 881 -201 1050 -227 44 -6 77 -12 115 -20 32
-7 146 -25 185 -31 17 -2 41 -6 55 -9 26 -5 48 -8 140 -21 30 -4 57 -8 60 -9
3 -1 32 -5 65 -9 33 -4 74 -9 90 -12 17 -2 44 -6 60 -8 17 -2 50 -7 75 -10 25
-3 68 -8 95 -12 28 -3 61 -7 75 -9 14 -2 57 -6 95 -10 39 -4 84 -8 100 -10 17
-2 57 -7 90 -10 33 -3 85 -8 116 -11 73 -7 105 -9 389 -29 229 -17 413 -20
1050 -20 624 0 919 5 1070 20 19 2 78 6 130 9 110 8 311 25 355 31 17 2 68 7
115 10 47 4 92 8 100 11 8 2 42 6 75 9 33 4 71 8 85 10 14 2 50 6 80 10 50 5
94 11 160 20 14 2 45 7 70 10 113 16 370 56 420 65 30 6 71 13 90 16 35 5 128
21 165 28 131 25 245 47 265 51 14 3 39 8 55 11 17 3 50 10 75 15 25 6 56 13
70 15 14 3 33 7 42 10 10 3 30 8 45 10 95 17 623 148 769 190 28 8 60 16 70
19 28 6 277 80 459 135 584 180 1301 453 1845 703 36 16 92 42 125 57 278 128
721 351 940 474 476 267 878 510 1160 700 33 23 68 46 77 51 9 6 55 37 103 70
47 33 96 67 109 75 43 29 261 185 273 195 6 5 28 21 48 35 37 26 218 161 245
183 9 6 33 25 55 42 22 16 47 35 55 42 8 6 71 56 140 109 69 54 127 101 130
104 3 3 41 35 85 70 44 36 85 70 91 75 6 6 33 28 59 50 27 22 53 45 59 50 6 6
36 30 66 55 30 25 62 52 70 60 9 8 49 44 90 80 40 36 85 76 100 90 15 14 47
42 71 64 176 155 716 684 899 882 121 129 254 276 296 323 22 25 46 52 54 60
8 9 40 46 70 81 30 36 58 67 61 70 16 15 329 395 424 515 61 77 116 147 122
155 7 8 71 94 142 190 72 96 135 180 140 187 29 33 369 529 451 655 134 209
342 544 405 655 6 10 53 92 104 183 52 91 107 188 122 215 14 28 52 97 84 155
101 187 374 741 450 915 15 33 37 83 50 110 12 28 41 95 65 150 23 55 46 107
50 116 5 9 29 67 54 130 26 63 51 123 56 134 17 39 103 263 167 435 139 378
278 807 378 1165 30 110 64 232 75 270 25 91 89 343 105 420 7 33 23 103 35
155 12 52 24 106 26 120 3 14 7 33 10 42 3 10 7 28 9 40 3 13 23 115 45 227
22 112 45 232 50 265 5 34 12 72 15 86 3 14 8 39 10 55 2 17 9 59 15 95 6 36
13 79 16 95 2 17 6 41 9 55 2 14 7 45 10 70 3 25 8 59 11 75 3 17 7 44 9 60 2
17 10 84 19 150 8 66 18 145 21 175 3 30 8 62 10 70 3 8 7 49 10 90 3 41 8 89
10 105 3 17 7 57 10 90 3 33 7 84 10 113 9 97 14 157 21 252 3 52 8 111 9 130
15 156 20 429 20 1075 0 662 -4 854 -20 1050 -2 28 -6 88 -9 135 -4 47 -8 108
-11 135 -2 28 -7 82 -10 120 -11 127 -23 245 -30 300 -2 17 -7 57 -10 90 -4
33 -8 74 -10 90 -2 17 -7 50 -10 75 -14 115 -17 136 -20 155 -8 55 -15 105
-20 149 -3 27 -8 52 -9 55 -2 3 -7 31 -10 62 -4 31 -9 67 -11 80 -3 13 -7 38
-10 54 -12 80 -25 163 -30 188 -3 15 -7 39 -10 55 -20 115 -25 141 -30 167 -2
17 -25 129 -50 250 -26 121 -48 230 -51 243 -58 286 -224 911 -349 1312 -93
296 -277 828 -324 935 -5 11 -37 92 -71 180 -78 198 -204 498 -300 710 -78
173 -398 821 -481 975 -218 401 -572 990 -736 1227 -24 34 -43 65 -43 68 0 3
-5 11 -10 18 -6 7 -76 107 -157 222 -80 116 -159 228 -175 250 -16 22 -36 51
-46 65 -9 14 -19 27 -22 30 -3 3 -66 86 -140 185 -74 99 -140 187 -147 195
-104 130 -318 396 -337 417 -13 16 -66 78 -117 138 -124 146 -245 284 -278
316 -14 15 -55 59 -91 100 -168 189 -666 693 -885 895 -205 190 -303 278 -410
370 -44 38 -82 71 -85 74 -4 6 -199 167 -366 305 -55 44 -172 137 -199 157 -5
4 -35 27 -65 51 -30 24 -122 94 -205 155 -82 62 -154 116 -160 120 -230 180
-1019 697 -1353 887 -9 6 -53 31 -97 56 -44 25 -100 57 -125 71 -25 14 -61 34
-80 45 -190 108 -347 190 -660 346 -277 138 -354 175 -610 289 -85 38 -168 75
-185 82 -16 8 -104 44 -195 81 -91 37 -178 73 -195 80 -41 18 -142 57 -245 95
-47 17 -94 36 -105 41 -61 28 -668 233 -880 297 -142 43 -290 87 -345 102 -55
15 -182 50 -215 60 -80 24 -692 170 -773 185 -13 2 -31 6 -40 9 -9 3 -30 8
-47 11 -29 5 -55 10 -105 20 -43 9 -184 36 -210 41 -14 2 -63 12 -110 20 -47
9 -98 18 -115 21 -16 2 -82 13 -145 23 -127 21 -288 46 -365 55 -27 4 -61 8
-75 10 -14 2 -47 7 -75 10 -27 4 -61 8 -75 10 -51 8 -199 25 -246 30 -53 4
-139 13 -194 20 -19 2 -73 7 -120 10 -47 4 -96 8 -110 10 -14 2 -70 7 -125 10
-55 3 -118 8 -140 10 -22 1 -105 6 -185 10 -80 4 -165 9 -190 11 -56 5 -1157
13 -1162 9z"/>
</g>
</svg>
